<?xml version="1.0" encoding="UTF-8"?>
<!DOCTYPE svg PUBLIC "-//W3C//DTD SVG 1.1//EN" "http://www.w3.org/Graphics/SVG/1.1/DTD/svg11.dtd">
<!-- Creator: CorelDRAW X7 -->
<svg xmlns="http://www.w3.org/2000/svg" xml:space="preserve" width="1078px" height="1080px" version="1.1" style="shape-rendering:geometricPrecision; text-rendering:geometricPrecision; image-rendering:optimizeQuality; fill-rule:evenodd; clip-rule:evenodd"
viewBox="0 0 1078 1080"
 xmlns:xlink="http://www.w3.org/1999/xlink">
 <defs>
  <style type="text/css">
   <![CDATA[
    .fil0 {fill:#332C2B}
    .fil1 {fill:#FFF000}
   ]]>
  </style>
 </defs>
 <g id="Layer_x0020_1">
  <metadata id="CorelCorpID_0Corel-Layer"/>
  <path class="fil0" d="M188 998c-120,-150 -205,-420 -185,-610 5,-8 10,-16 15,-24 105,-160 336,-324 522,-364 9,2 19,4 28,7 185,51 412,219 508,384 0,9 1,18 1,28 10,192 -80,460 -208,602 -8,4 -17,7 -26,11 -180,68 -463,65 -637,-13 -6,-6 -12,-14 -18,-21z"/>
  <path class="fil1" d="M148 489l-7 35 -10 -2 4 -21 -5 -1 -4 19 -9 -2 4 -19 -7 -1 -4 21 -11 -2 7 -35 42 8zm333 -180l116 0 -58 -46 -58 46zm58 -112l0 0c16,0 31,1 46,3l1 4 -47 38 -47 -38 1 -4c15,-2 30,-3 46,-3zm64 5l0 0c57,10 109,33 153,65 -33,20 -76,35 -125,44l-28 -109zm-156 109l0 0c-49,-9 -92,-24 -125,-44 45,-32 97,-55 153,-65l-28 109zm-142 523l0 0c18,-4 36,-7 55,-7 32,0 63,9 94,18 28,8 57,17 85,17 28,0 57,-9 86,-17 31,-9 61,-18 93,-18l0 0c19,0 37,3 55,7 -9,9 -19,17 -29,24 -9,-1 -17,-2 -26,-2l0 0c-28,0 -56,8 -85,17 -31,9 -62,18 -94,18 -32,0 -63,-9 -94,-18 -28,-9 -57,-17 -85,-17 -8,0 -17,1 -26,2 -10,-7 -20,-15 -29,-24zm60 -135l0 0c2,0 4,0 6,0 30,0 59,8 88,17 27,8 54,16 80,16 26,0 53,-8 80,-16 29,-9 58,-17 88,-17l0 0c2,0 4,0 7,0l-2 -5 -1 -1 -344 0 -1 1 -1 5zm452 89l0 0c-7,8 -14,16 -21,24 -4,-1 -8,-3 -12,-4 -25,-8 -51,-16 -77,-16l0 0c-26,0 -53,8 -80,16 -29,9 -58,17 -88,17 -30,0 -59,-8 -88,-17 -27,-8 -54,-16 -80,-16 -26,0 -52,8 -77,16 -4,1 -8,3 -12,4 -7,-8 -14,-16 -20,-24 7,-2 15,-5 24,-8 26,-8 56,-17 85,-17 30,0 59,9 88,17 27,8 54,16 80,16 26,0 53,-8 80,-16 29,-8 58,-17 88,-17l0 0c30,0 59,9 86,17 8,3 16,6 24,8zm-157 -297l0 0 -62 36 -40 -20 94 -47 8 31zm-180 36l0 0 -62 -36 8 -31 94 47 -40 20zm59 -29l0 0 85 -42 -170 0 85 42zm-13 -246l0 0 -58 46 19 -76 39 30zm65 -30l0 0 20 76 -58 -46 38 -30zm-198 456l0 0 146 -84 146 84 -292 0zm374 -403l0 0c-33,22 -79,40 -132,50l27 107c23,-2 44,-5 65,-8l-54 -61 33 -24 64 77c36,-7 68,-16 96,-26 -25,-45 -59,-84 -99,-115zm-122 158l0 0c0,0 0,0 0,0l-91 -61 64 -44 27 105zm-28 2l0 0 -78 -53 -78 53c25,2 51,2 78,2 27,0 53,0 78,-2zm-183 -2l0 0c-1,0 -1,0 -1,0l27 -105 64 44 -90 61zm-18 -1l0 0 28 -107c-53,-10 -99,-28 -133,-50 -40,31 -74,70 -99,115 28,10 60,19 97,26l63 -77 33 24 -54 61c21,3 43,6 65,8zm77 -101l0 0 46 31 46 -31c-15,1 -30,2 -46,2 -15,0 -31,-1 -46,-2zm381 74l0 0c21,42 35,90 38,140l-98 0c1,-17 1,-33 -1,-44 -4,-20 -7,-41 -20,-56l-11 -14c34,-7 65,-16 92,-26zm-81 140l0 0c-3,-19 -9,-37 -16,-52 -5,-10 -10,-19 -16,-27l-78 45 8 34 102 0zm-119 0l0 0 -6 -25 -39 22 6 3 39 0zm-107 0l0 0 14 -8 -42 -21 -42 21 14 8 56 0zm-124 0l0 0 6 -3 -38 -22 -7 25 39 0zm-56 0l0 0 -102 0c4,-19 9,-37 16,-52 5,-10 10,-19 16,-27l79 45 -9 34zm-122 0l0 0 -99 0c4,-50 17,-98 38,-140 27,10 58,19 92,26l-11 14c-12,15 -16,36 -20,56 -2,11 -2,27 0,44zm72 -106l0 0 -3 4 69 40 9 -34c-26,-3 -51,-6 -75,-10zm329 10l0 0c26,-3 51,-6 75,-10l3 4 -69 40 -9 -34zm247 110l0 0 -101 0c-3,22 -7,45 -11,60 -1,-20 -2,-41 -5,-60l-101 0 36 141c22,3 42,10 62,16 23,7 44,15 60,16 -5,9 -10,18 -16,27 -16,-3 -34,-9 -53,-16 -25,-7 -51,-15 -77,-15l0 0c-26,0 -53,8 -80,16 -29,8 -58,17 -88,17 -30,0 -59,-9 -88,-17 -27,-8 -54,-16 -80,-16 -26,0 -52,8 -77,15 -19,7 -37,13 -53,16 -6,-9 -11,-18 -16,-27 16,-1 37,-9 61,-16 19,-6 40,-13 61,-16l36 -141 -101 0c-2,19 -4,40 -5,60 -4,-15 -8,-38 -11,-60l-100 0c-1,4 -1,8 -1,12 0,205 168,373 374,373 206,0 374,-168 374,-373 0,-4 0,-8 0,-12zm-512 0l0 0 14 0 -16 8 2 -8zm52 0l0 0 -60 29 -17 67 135 -77 -33 -19 -25 0zm82 0l0 0 8 0 -4 2 -4 -2zm65 0l0 0 -32 19 134 77 -17 -67 -59 -29 -26 0zm63 0l0 0 15 0 2 8 -17 -8zm-56 -446l64 -45 213 147 -39 32 85 89 -135 -86 41 -35 -229 -102zm-135 0l-65 -45 -213 147 40 32 -86 89 135 -86 -41 -35 230 -102zm-332 423l0 0 -1 13 -23 13 23 1 -1 13 -42 -1 1 -13 23 -14 -23 0 1 -13 42 1zm0 56l0 0 2 35 -10 1 -1 -21 -5 0 1 20 -10 0 -1 -19 -7 0 2 22 -11 1 -2 -36 42 -3zm-37 57l0 0 41 -10 5 22c1,3 2,6 1,9 0,2 -1,4 -2,6 -2,1 -4,3 -7,3 -2,1 -4,1 -6,0 -2,0 -4,-2 -5,-3 -1,-1 -2,-2 -2,-4 0,2 0,3 0,3 -1,1 -1,2 -2,3 -1,1 -2,2 -3,3l-10 8 -4 -15 11 -9c2,-1 2,-2 3,-3 0,-1 0,-2 0,-3l0 0 -16 3 -4 -13zm28 8l0 0 2 4c0,1 0,2 1,3 0,1 1,1 1,2 1,0 2,0 2,0 1,0 2,-1 3,-2 0,-1 0,-2 0,-4l-2 -5 -7 2zm7 61l0 0 9 -4 7 20 -17 6c-4,-3 -7,-6 -9,-8 -2,-3 -3,-6 -5,-9 -1,-5 -2,-9 -1,-13 0,-3 2,-6 5,-9 2,-3 6,-5 10,-6 4,-2 8,-2 12,-2 4,1 7,3 10,6 2,2 4,5 6,10 1,4 2,8 2,10 0,3 -1,5 -2,7 -1,2 -3,4 -6,6l-6 -12c1,-1 2,-2 2,-4 1,-1 1,-2 0,-4 -1,-3 -2,-4 -5,-5 -2,-1 -5,-1 -9,1 -4,1 -6,3 -7,5 -2,2 -2,4 -1,7 1,1 1,2 2,3 1,1 2,2 3,3l3 0 -3 -8zm39 23l0 0 6 13 -38 18 -6 -12 38 -19zm31 55l0 0 12 15c2,3 4,6 4,9 1,2 1,5 0,7 0,2 -1,5 -3,7 -1,2 -3,4 -6,6 -3,2 -6,4 -9,5 -2,0 -5,1 -7,0 -3,0 -5,-1 -7,-2 -2,-2 -4,-4 -5,-6l-12 -15 33 -26zm0 17l0 0 -16 13 1 2c2,2 3,4 4,4 1,1 2,1 4,0 1,0 3,-1 6,-3 3,-3 5,-5 5,-7 1,-2 0,-4 -2,-7l-2 -2zm23 65l0 0 -3 6 10 11 20 -40 -10 -11 -42 17 10 10 6 -3 9 10zm6 -9l0 0 -5 -6 12 -6 -7 12zm39 3l0 0 10 8 -3 27 15 -18 10 8 -27 33 -10 -8 3 -27 -14 18 -10 -8 26 -33zm59 74l0 0 12 6c-1,2 -1,3 -1,5 1,1 2,3 4,4 1,1 3,1 4,1 1,-1 2,-1 2,-2 1,-1 1,-2 0,-3 0,-1 -2,-3 -5,-5 -4,-3 -7,-7 -8,-11 -1,-2 -1,-5 1,-8 1,-2 2,-3 4,-4 2,-2 5,-2 7,-2 3,0 6,1 10,3 5,3 8,5 10,9 2,3 1,6 0,11l-12 -5c0,-2 1,-4 0,-5 0,-1 -1,-2 -3,-3 -1,0 -2,0 -3,0 -1,0 -1,0 -1,1 -1,0 -1,1 0,2 0,0 1,1 3,3 4,3 7,6 9,8 1,3 2,5 2,7 0,2 0,4 -1,6 -1,3 -3,5 -6,6 -2,2 -5,2 -8,2 -2,0 -6,-1 -9,-3 -7,-3 -11,-7 -12,-10 -1,-4 -1,-8 1,-13zm83 6l0 0 13 5 -8 23c-1,3 -2,5 -3,7 -2,1 -4,3 -6,4 -2,1 -4,1 -7,1 -2,1 -4,0 -8,-1 -2,-1 -4,-2 -6,-3 -2,-1 -4,-2 -5,-3 -1,-2 -2,-3 -3,-5 -1,-2 -1,-4 -1,-6 0,-3 0,-5 1,-7l8 -24 13 5 -8 24c-1,2 -1,4 0,5 0,2 2,3 4,3 2,1 3,1 5,0 1,0 2,-2 3,-4l8 -24zm27 7l0 0 17 4 1 25 11 -23 17 3 -8 42 -11 -2 6 -31 -13 29 -10 -2 -1 -32 -6 31 -11 -2 8 -42zm60 10l0 0 24 1c4,0 7,1 9,3 3,3 4,5 4,8 -1,3 -1,5 -3,7 -1,1 -3,2 -4,2 2,0 4,2 6,3 1,2 2,5 2,7 0,3 -1,5 -2,6 -1,2 -2,3 -4,3 -1,2 -3,2 -5,3 -3,0 -5,0 -6,0l-23 -1 2 -42zm13 17l0 0 5 0c2,0 3,0 4,-1 1,0 1,-1 1,-2 0,-1 0,-2 -1,-3 -1,0 -2,-1 -4,-1l-5 0 0 7zm0 16l0 0 5 0c3,0 4,0 5,-1 1,-1 1,-1 1,-3 0,-1 0,-1 -1,-2 -1,-1 -2,-1 -4,-1l-6 0 0 7zm39 -31l0 0 35 -4 1 10 -22 2 1 6 20 -2 0 9 -19 2 0 7 22 -2 1 10 -36 3 -3 -41zm57 36l0 0 -10 -41 21 -5c4,-1 7,-1 9,-1 3,0 5,1 7,2 1,2 2,4 3,7 1,2 1,4 0,6 0,2 -1,4 -3,5 -1,1 -2,2 -4,2 2,0 3,0 4,0 0,1 1,1 2,2 1,1 2,2 3,3l9 10 -15 4 -10 -11c-1,-1 -2,-2 -3,-2 -1,-1 -2,-1 -3,0l0 0 4 16 -14 3zm8 -28l0 0 4 -1c1,0 2,-1 3,-1 1,-1 1,-1 2,-2 0,-1 0,-1 0,-2 0,-1 -1,-2 -2,-2 -1,-1 -2,-1 -4,0l-5 1 2 7zm66 -36l0 0 17 -9c4,-1 7,-2 9,-2 3,0 5,0 8,1 2,2 4,3 5,5 2,2 4,4 5,7 2,4 3,7 3,10 0,3 0,5 -1,8 -1,2 -3,4 -4,5 -3,2 -5,3 -7,4l-17 9 -18 -38zm17 3l0 0 9 19 2 -1c2,-1 4,-2 4,-3 1,-1 1,-2 1,-3 0,-2 0,-4 -2,-7 -1,-4 -3,-6 -5,-7 -2,-1 -4,0 -7,1l-2 1zm68 -8l0 0 -12 7 2 7 -12 7 -8 -44 12 -7 35 28 -12 7 -5 -5zm-8 -7l0 0 -10 -10 4 14 6 -4zm4 -33l0 0 27 9 12 14 10 -9 -11 -13 -3 -29 -11 9 2 16 -15 -6 -11 9zm83 -25l0 0 -10 10 3 6 -10 9 -18 -41 11 -10 40 20 -10 10 -6 -4zm-9 -5l0 0 -13 -7 7 12 6 -5zm23 -65l0 0 9 -15 24 8 -18 -18 10 -15 35 22 -6 10 -26 -17 22 23 -5 8 -30 -10 26 16 -6 10 -35 -22zm31 -53l0 0 38 17 6 -13 -39 -17 -5 13zm13 -27l0 0 4 -12 26 -7 -22 -7 4 -13 40 13 -4 13 -26 6 22 7 -4 13 -40 -13zm17 -54l0 0 8 -34 9 2 -4 21 5 1 4 -19 9 2 -4 19 7 2 5 -22 10 3 -8 35 -41 -10zm51 -44l0 0 -41 -3 1 -21c0,-4 1,-7 2,-10 1,-2 2,-3 4,-4 2,-2 4,-2 7,-2 2,0 4,1 6,2 2,1 3,3 4,4 1,2 1,3 1,5 0,-2 1,-3 1,-3 1,-1 1,-1 3,-2 1,-1 2,-2 3,-2l12 -5 -1 15 -13 6c-1,1 -3,1 -3,2 -1,1 -1,2 -1,3l0 0 16 1 -1 14zm-24 -15l0 0 0 -5c0,-1 0,-2 0,-3 0,-1 0,-2 -1,-2 0,-1 -1,-1 -2,-1 -1,0 -2,0 -3,1 0,0 -1,2 -1,4l0 5 7 1zm20 -67l0 0 0 14 7 1 1 14 -43 -14 0 -14 41 -17 1 14 -7 2zm-10 3l0 0 -13 5 13 3 0 -8zm-27 -27l0 0 -3 -14 30 -5 -3 -20 11 -2 6 33 -41 8z"/>
 </g>
</svg>
